<svg width="8" height="8" viewBox="0 0 8 8" fill="none" xmlns="http://www.w3.org/2000/svg">
    <path fill-rule="evenodd" clip-rule="evenodd"
        d="M3.2287 3.09058H4.3429V3.64558C4.5034 3.32638 4.915 3.03958 5.5333 3.03958C6.7186 3.03958 7 3.67498 7 4.84078V6.99988H5.8V5.10628C5.8 4.44238 5.6395 4.06798 5.2309 4.06798C4.6642 4.06798 4.4287 4.47148 4.4287 5.10598V6.99988H3.2287V3.09058ZM1.171 6.94888H2.371V3.03958H1.171V6.94888ZM2.5429 1.76488C2.54294 1.86546 2.523 1.96505 2.48422 2.05785C2.44544 2.15066 2.3886 2.23483 2.317 2.30548C2.17192 2.44966 1.97554 2.53037 1.771 2.52988C1.56682 2.52974 1.37089 2.44924 1.2256 2.30578C1.15426 2.23489 1.09762 2.15062 1.0589 2.05781C1.02019 1.96499 1.00017 1.86545 1 1.76488C1 1.56178 1.081 1.36738 1.2259 1.22398C1.37107 1.08033 1.56707 0.999788 1.7713 0.999878C1.9759 0.999878 2.1721 1.08058 2.317 1.22398C2.4616 1.36738 2.5429 1.56178 2.5429 1.76488Z"
        fill="#121212" />
</svg>