<svg width="8" height="8" viewBox="0 0 8 8" fill="none" xmlns="http://www.w3.org/2000/svg">
    <path fill-rule="evenodd" clip-rule="evenodd"
        d="M6.4542 0.0451993C6.54273 0.00517773 6.63962 -0.00862543 6.7348 0.00522632C6.82998 0.0190781 6.91996 0.0600785 6.99538 0.12396C7.0708 0.187841 7.1289 0.272269 7.16363 0.368454C7.19837 0.464639 7.20846 0.569067 7.19287 0.670866L6.38041 5.96441C6.3016 6.47502 5.78001 6.76785 5.34405 6.5135C4.97937 6.30072 4.43772 5.97288 3.95053 5.6308C3.70693 5.45957 2.96074 4.91124 3.05244 4.52107C3.13125 4.18745 4.38506 2.93381 5.10152 2.18847C5.38273 1.89565 5.25449 1.72673 4.92241 1.99608C4.09776 2.66484 2.77374 3.68184 2.33598 3.96812C1.94981 4.22055 1.74848 4.26364 1.50775 4.22055C1.06856 4.14205 0.661254 4.02046 0.328816 3.87231C-0.120406 3.67222 -0.0985536 3.00884 0.328457 2.81568L6.4542 0.0451993Z"
        fill="#121212" />
</svg>